<svg width="70" height="70" viewBox="0 0 70 70" fill="none" xmlns="http://www.w3.org/2000/svg">
<rect width="70" height="70" rx="8" fill="white" fill-opacity="0.2"/>
<g clip-path="url(#clip0_1_1336)">
<path fill-rule="evenodd" clip-rule="evenodd" d="M43.5 12.0005C43.998 10.9946 43.9551 10.4399 45.0586 10.0883C45.1954 10.0493 45.5372 10.0102 45.8301 10.0102C46.7774 9.99066 47.3536 10.645 47.2657 11.6215C47.2364 11.8657 47.2071 12.9106 47.1973 13.9457L47.2265 15.8989C48.8378 16.2407 50.4394 17.1685 52.3339 18.8384C55.7519 21.8462 56.2011 22.188 57.6757 22.8813C58.7988 23.4185 58.9062 23.5063 59.1894 24.2095C59.9218 26.0063 59.6777 27.4419 58.4277 28.5942C57.6562 29.3071 57.0019 29.6782 54.6972 30.7134C52.0214 31.9145 51.4355 32.3247 50.8886 33.438C50.6933 33.8481 50.6738 34.0142 50.6738 35.7329C50.664 38.0864 50.5371 38.6626 49.0136 43.3013C47.7246 47.2075 47.3925 48.3501 47.1191 49.7173C46.582 52.354 46.8164 54.0923 47.8808 55.2349C48.4081 55.8208 49.0722 56.1528 50.1953 56.436C50.7128 56.563 51.2206 56.7388 51.3183 56.8364C51.748 57.227 51.7285 58.0962 51.289 58.5063C50.9179 58.8384 50.5566 58.8579 49.5996 58.5845C47.7148 58.0376 46.3281 57.0122 45.6152 55.645C45.1074 54.6587 44.9316 53.8384 44.9316 52.3833C44.9316 50.2544 45.3417 48.4575 46.9042 43.6431C48.4863 38.7602 47.9296 37.3345 47.8417 35.3325C47.7441 33.2231 46.9238 31.5552 47.8808 30.5005C48.6914 29.5923 50.6445 29.2017 53.3007 28.02C55.7128 26.9458 57.6074 26.6313 57.2753 25.5181C57.207 25.313 57.0996 25.1372 57.0312 25.1372C56.7578 25.1372 55.1171 24.2485 54.3847 23.7017C53.955 23.3794 52.8808 22.4614 51.9921 21.6704C49.5214 19.4731 48.3203 18.7602 46.5722 18.4477C45.5566 18.272 45.2343 18.2622 44.7167 18.4087C43.916 18.6333 43.3496 20.7427 41.9824 23.8091C40.791 26.4653 40.3027 27.354 39.3457 28.5942C38.2812 29.9614 36.4648 30.2934 35.2246 30.938C34.873 31.1138 34.1406 31.1431 33.8085 30.9868C33.6132 30.8989 33.3496 30.9868 32.1191 31.5337C28.33 33.2036 25.7031 34.9028 23.623 36.9927C21.6406 38.9849 20.4492 41.1431 19.8535 43.8384C19.5898 44.9809 19.4921 47.9106 19.6679 49.3657C19.8828 51.2602 20.498 53.936 20.8984 54.727C21.3378 55.6255 22.373 56.3384 23.7499 56.6899C25.332 57.0903 27.1191 56.1099 32.1289 55.7681L33.8867 55.6411L34.1992 55.0845C34.6582 54.2544 35.166 53.9263 35.4589 52.8227C35.791 51.5239 36.2207 48.9165 35.9863 47.979C35.4296 45.7817 33.9648 44.6782 30.8789 43.7895C29.6484 43.4282 29 43.2134 29 42.6177C29 41.9438 29.3359 42.1196 30.8789 41.9145C32.8417 41.6509 35.039 42.4126 36.3281 43.7993C36.7285 44.2192 37.246 45.0591 37.5195 45.7134C38.5644 48.1841 38.1445 52.0513 36.4648 55.5767L35.9863 56.5825H36.7578C38.291 56.5825 40.0781 56.9731 40.4687 57.3833C40.7421 57.686 40.7324 58.2524 40.4296 58.604C40.1953 58.8774 40.1855 58.8774 39.1601 58.8481C37.9003 58.8091 36.6992 58.9165 32.9492 59.4145C28.6328 59.9809 27.9882 60.0298 25.791 59.9712C23.2324 59.9028 22.0312 59.6196 20.6445 58.7798C20.1171 58.4575 18.789 57.1684 18.789 56.9829C18.789 56.9341 18.2812 56.9145 17.6464 56.9438C16.8066 56.9829 16.2988 56.9536 15.7812 56.8364C12.9003 56.2212 11.1328 53.8774 10.5664 49.8931C10.4199 48.8872 10.4003 45.1567 10.5175 43.8579C10.6152 42.8618 10.7714 42.6177 11.3085 42.6177C11.8261 42.6177 12.0507 42.9692 12.0507 43.7895C12.0507 44.6977 12.2265 46.7681 12.4023 47.979C12.7636 50.4692 13.4863 52.2661 14.4921 53.1938C14.8828 53.5552 15.205 53.7602 15.5273 53.8579C16.0253 53.9946 17.4999 54.0142 17.6269 53.8774C17.666 53.8286 17.666 53.5942 17.6171 53.3403C17.2363 51.3286 17.08 47.5591 17.3144 45.7134C18.2519 38.5063 22.3535 34.0923 31.8652 30.0786C32.7832 29.6977 32.9101 29.2485 33.1347 28.8774C33.3398 28.5356 33.5546 28.3696 34.2675 27.9985C34.9414 27.6372 35.3515 27.3345 36.0351 26.6509C37.1777 25.5278 37.705 24.6977 39.2285 21.6704C40.6738 18.8091 41.2011 17.9595 42.08 17.1489C42.4233 16.825 42.3926 16.8461 42.3926 16.8461L43.1875 15.8677C42.7578 14.5298 42.8555 13.3188 43.5 12.0005Z" fill="white"/>
</g>
<defs>
<clipPath id="clip0_1_1336">
<rect width="50" height="50" fill="white" transform="translate(10 10)"/>
</clipPath>
</defs>
</svg>
