<svg width="122" height="30" viewBox="0 0 122 30" fill="none" xmlns="http://www.w3.org/2000/svg">
<path d="M32.0633 10.6309H44.406V12.9323H39.5462V25.9057H36.8824V12.9323H32.043L32.0633 10.6309ZM43.8773 14.8467H46.1547V16.9852H46.1954C46.2767 16.6797 46.419 16.3946 46.6224 16.1094C46.8257 15.8243 47.0697 15.5595 47.3747 15.3355C47.6594 15.0911 47.9847 14.9078 48.3508 14.7653C48.6964 14.6227 49.0624 14.5412 49.4285 14.5412C49.7131 14.5412 49.9165 14.5616 50.0181 14.5616C50.1198 14.582 50.2418 14.6023 50.3435 14.6023V16.9445C50.1808 16.9037 49.9978 16.8834 49.8148 16.863C49.6318 16.8426 49.4691 16.8223 49.2861 16.8223C48.8794 16.8223 48.4931 16.9037 48.1271 17.0667C47.7611 17.2296 47.4561 17.474 47.1714 17.7795C46.907 18.1054 46.6834 18.4923 46.5207 18.9608C46.358 19.4292 46.2767 19.9791 46.2767 20.5901V25.8446H43.8366L43.8773 14.8467ZM61.5271 25.9057H59.1277V24.3579H59.0871C58.782 24.9281 58.3347 25.3558 57.745 25.7021C57.1553 26.0483 56.5453 26.2112 55.9353 26.2112C54.4916 26.2112 53.4342 25.865 52.7835 25.1318C52.1329 24.419 51.8075 23.3192 51.8075 21.8732V14.8467H54.2476V21.6288C54.2476 22.6064 54.4306 23.2988 54.8169 23.6858C55.1829 24.0931 55.7116 24.2968 56.3826 24.2968C56.891 24.2968 57.318 24.2153 57.6637 24.0524C58.0094 23.8895 58.294 23.6858 58.4974 23.421C58.721 23.1563 58.8634 22.8304 58.9651 22.4638C59.0667 22.0972 59.1074 21.6899 59.1074 21.2622V14.8467H61.5475V25.9057H61.5271ZM65.6752 22.362C65.7566 23.0748 66.0209 23.5636 66.4886 23.8691C66.9563 24.1542 67.5256 24.2968 68.1763 24.2968C68.4 24.2968 68.6643 24.2764 68.949 24.2357C69.2337 24.195 69.5183 24.1339 69.7624 24.032C70.0267 23.9302 70.23 23.7876 70.3927 23.584C70.5554 23.3803 70.6367 23.1359 70.6164 22.8304C70.596 22.5249 70.4944 22.2601 70.2707 22.0565C70.047 21.8528 69.7827 21.7102 69.4573 21.5677C69.132 21.4455 68.7457 21.3436 68.3186 21.2622C67.8916 21.1807 67.4646 21.0789 67.0173 20.977C66.5699 20.8752 66.1226 20.753 65.6956 20.6104C65.2686 20.4679 64.9025 20.2846 64.5569 20.0198C64.2315 19.7754 63.9469 19.4699 63.7639 19.083C63.5605 18.696 63.4588 18.2479 63.4588 17.6777C63.4588 17.0667 63.6012 16.5779 63.9062 16.1705C64.1909 15.7632 64.5772 15.4374 65.0246 15.193C65.4719 14.9486 65.9803 14.7653 66.5293 14.6634C67.0783 14.5616 67.607 14.5209 68.095 14.5209C68.6643 14.5209 69.2133 14.582 69.7217 14.7042C70.23 14.8264 70.718 15.0097 71.1247 15.2948C71.5517 15.5596 71.8974 15.9261 72.1618 16.3538C72.4464 16.7815 72.6091 17.3111 72.6904 17.9221H70.1487C70.0267 17.3314 69.7624 16.9445 69.3557 16.7408C68.9287 16.5371 68.461 16.4353 67.912 16.4353C67.7493 16.4353 67.5256 16.4557 67.302 16.476C67.0579 16.5168 66.8546 16.5575 66.6309 16.639C66.4276 16.7204 66.2446 16.8426 66.1023 16.9852C65.9599 17.1278 65.8786 17.3314 65.8786 17.5758C65.8786 17.8813 65.9802 18.1054 66.1836 18.2887C66.3869 18.472 66.6513 18.6145 66.9969 18.7571C67.3223 18.8793 67.7086 18.9811 68.1356 19.0626C68.5627 19.1441 69.01 19.2459 69.4573 19.3477C69.9047 19.4496 70.3317 19.5718 70.7587 19.7143C71.1857 19.8569 71.5721 20.0402 71.8974 20.305C72.2228 20.5493 72.5074 20.8548 72.7108 21.2214C72.9141 21.588 73.0158 22.0565 73.0158 22.586C73.0158 23.2377 72.8734 23.7876 72.5684 24.2561C72.2634 24.7041 71.8771 25.0911 71.4094 25.3762C70.9417 25.6613 70.3927 25.865 69.8234 26.0076C69.2337 26.1298 68.6643 26.2112 68.095 26.2112C67.4036 26.2112 66.7529 26.1298 66.1633 25.9668C65.5736 25.8039 65.0449 25.5595 64.6179 25.254C64.1909 24.9281 63.8452 24.5412 63.6012 24.0524C63.3572 23.584 63.2148 23.0137 63.1945 22.3416H65.6549V22.362H65.6752ZM73.7071 14.8467H75.5575V11.5066H77.9976V14.8264H80.1936V16.639H77.9976V22.5453C77.9976 22.81 78.0179 23.0137 78.0382 23.2174C78.0586 23.4007 78.1196 23.5636 78.1806 23.6858C78.2619 23.808 78.3839 23.9098 78.5263 23.9709C78.6889 24.032 78.8923 24.0728 79.1769 24.0728C79.3396 24.0728 79.5226 24.0728 79.6853 24.0524C79.848 24.032 80.031 24.0117 80.1936 23.9709V25.865C79.9293 25.9057 79.665 25.9261 79.4006 25.9465C79.1363 25.9872 78.8923 25.9872 78.6076 25.9872C77.9569 25.9872 77.4486 25.9261 77.0622 25.8039C76.6759 25.6817 76.3709 25.4984 76.1472 25.2744C75.9235 25.03 75.7812 24.7448 75.6999 24.3986C75.6185 24.0524 75.5779 23.6247 75.5575 23.1766V16.6593H73.7071V14.806V14.8467ZM81.9017 14.8467H84.1994V16.3538H84.2401C84.5858 15.7021 85.0534 15.2541 85.6635 14.9689C86.2735 14.6838 86.9242 14.5412 87.6562 14.5412C88.5305 14.5412 89.2829 14.6838 89.9336 15.0097C90.5843 15.3152 91.113 15.7225 91.54 16.2724C91.967 16.8019 92.2923 17.4333 92.4957 18.1461C92.699 18.8589 92.821 19.6329 92.821 20.4271C92.821 21.1807 92.7193 21.8935 92.5363 22.586C92.333 23.2785 92.0483 23.9098 91.662 24.4393C91.2756 24.9689 90.7876 25.3966 90.1776 25.7224C89.5676 26.0483 88.8762 26.2112 88.0629 26.2112C87.7172 26.2112 87.3512 26.1705 87.0055 26.1094C86.6598 26.0483 86.3141 25.9465 85.9888 25.8039C85.6635 25.6613 85.3585 25.478 85.0941 25.254C84.8094 25.03 84.5858 24.7652 84.4028 24.4801H84.3621V29.9994H81.922V14.8467H81.9017ZM90.4216 20.3864C90.4216 19.8976 90.3606 19.4088 90.2183 18.9404C90.0963 18.472 89.8929 18.0646 89.6286 17.698C89.3642 17.3314 89.0389 17.0463 88.6729 16.8223C88.2865 16.5982 87.8392 16.4964 87.3512 16.4964C86.3345 16.4964 85.5618 16.8426 85.0331 17.5555C84.5248 18.2683 84.2604 19.2255 84.2604 20.4068C84.2604 20.977 84.3214 21.4862 84.4638 21.9546C84.6061 22.4231 84.7891 22.8304 85.0738 23.1766C85.3381 23.5229 85.6635 23.7876 86.0498 23.9913C86.4362 24.1949 86.8632 24.2968 87.3715 24.2968C87.9409 24.2968 88.3882 24.1746 88.7746 23.9506C89.1609 23.7265 89.4659 23.421 89.7302 23.0748C89.9743 22.7082 90.1573 22.3009 90.2589 21.8324C90.3606 21.3436 90.4216 20.8752 90.4216 20.3864ZM94.712 10.6309H97.1521V12.9323H94.712V10.6309ZM94.712 14.8467H97.1521V25.9057H94.712V14.8467ZM99.3278 10.6309H101.768V25.9057H99.3278V10.6309ZM109.21 26.2112C108.336 26.2112 107.543 26.0687 106.851 25.7632C106.16 25.4577 105.591 25.0707 105.103 24.5615C104.635 24.0524 104.269 23.421 104.025 22.7082C103.781 21.9954 103.639 21.2011 103.639 20.366C103.639 19.531 103.761 18.7571 104.025 18.0443C104.269 17.3314 104.635 16.7204 105.103 16.1909C105.57 15.6818 106.16 15.2744 106.851 14.9893C107.543 14.7042 108.336 14.5412 109.21 14.5412C110.084 14.5412 110.878 14.6838 111.569 14.9893C112.26 15.2744 112.83 15.6818 113.318 16.1909C113.785 16.7001 114.151 17.3314 114.395 18.0443C114.639 18.7571 114.782 19.531 114.782 20.366C114.782 21.2214 114.66 21.9954 114.395 22.7082C114.131 23.421 113.785 24.032 113.318 24.5615C112.85 25.0707 112.26 25.478 111.569 25.7632C110.878 26.0483 110.105 26.2112 109.21 26.2112ZM109.21 24.2764C109.739 24.2764 110.227 24.1542 110.613 23.9302C111.02 23.7062 111.325 23.4007 111.589 23.0341C111.854 22.6675 112.037 22.2398 112.159 21.7917C112.281 21.3233 112.342 20.8548 112.342 20.366C112.342 19.8976 112.281 19.4292 112.159 18.9608C112.037 18.4923 111.854 18.085 111.589 17.7184C111.325 17.3518 111 17.0667 110.613 16.8426C110.206 16.6186 109.739 16.4964 109.21 16.4964C108.681 16.4964 108.193 16.6186 107.807 16.8426C107.4 17.0667 107.095 17.3722 106.831 17.7184C106.567 18.085 106.384 18.4923 106.262 18.9608C106.14 19.4292 106.079 19.8976 106.079 20.366C106.079 20.8548 106.14 21.3233 106.262 21.7917C106.384 22.2601 106.567 22.6675 106.831 23.0341C107.095 23.4007 107.421 23.7062 107.807 23.9302C108.214 24.1746 108.681 24.2764 109.21 24.2764ZM115.514 14.8467H117.364V11.5066H119.804V14.8264H122V16.639H119.804V22.5453C119.804 22.81 119.824 23.0137 119.845 23.2174C119.865 23.4007 119.926 23.5636 119.987 23.6858C120.068 23.808 120.19 23.9098 120.333 23.9709C120.495 24.032 120.699 24.0728 120.983 24.0728C121.146 24.0728 121.329 24.0728 121.492 24.0524C121.654 24.032 121.837 24.0117 122 23.9709V25.865C121.736 25.9057 121.471 25.9261 121.207 25.9465C120.943 25.9872 120.699 25.9872 120.414 25.9872C119.763 25.9872 119.255 25.9261 118.869 25.8039C118.482 25.6817 118.177 25.4984 117.954 25.2744C117.73 25.03 117.588 24.7448 117.506 24.3986C117.425 24.0524 117.384 23.6247 117.364 23.1766V16.6593H115.514V14.806V14.8467Z" fill="#141414"/>
<path d="M29.2198 10.6313H18.0565L14.6201 0L11.1633 10.6313L0 10.611L9.02825 17.1893L5.57149 27.8207L14.5997 21.2423L23.628 27.8207L20.1916 17.1893L29.2198 10.6313Z" fill="#00B67A"/>
<path d="M20.9633 19.5927L20.1906 17.1895L14.6191 21.2424L20.9633 19.5927Z" fill="#005128"/>
</svg>
