<svg width="258" height="86" viewBox="0 0 258 86" fill="none" xmlns="http://www.w3.org/2000/svg">
<path fill-rule="evenodd" clip-rule="evenodd" d="M82.9559 8.73735C82.4369 7.15893 82.5665 5.86681 82.6961 5.41811C83.334 5.57281 83.8504 5.6064 85.1543 5.69118L85.6884 5.72587C86.0491 5.75009 86.4609 5.77817 86.936 5.81285C89.2215 5.97857 89.7552 6.73777 90.6232 7.97264C91.9094 9.8021 93.2429 11.435 95.6626 11.7945C96.6088 11.9349 97.4216 12.0703 98.2436 12.2074L98.2866 12.214L99.1437 12.3566L99.8124 12.4651C100.707 12.6077 101.699 12.7569 102.936 12.9198C102.823 21.9058 96.2883 23.1561 93.1777 23.0835L92.7939 23.0735L92.7053 23.0702C90.0428 22.9888 89.7475 22.98 86.6893 29.6889C83.459 36.7744 83.0196 44.7711 83.0196 48.947C83.0196 52.0234 83.5565 56.9827 84.0642 61.6706L84.0652 61.6794L84.0707 61.7306C84.2495 63.3828 84.4243 64.9981 84.5702 66.484C85.1319 72.2031 84.1842 79.3971 84.0085 80.0539L83.9695 80.1987C83.4165 82.2407 82.718 85.5351 86.132 85.5351H93.4895C94.0088 81.8338 92.0468 80.0539 89.5656 80.0539C90.9217 73.16 90.3589 67.5025 89.758 62.5311C89.157 57.5597 88.3903 48.3271 88.8255 42.869C89.2606 37.4103 91.6023 32.0128 93.3843 28.4821C100.741 28.4414 105.315 24.7296 107.019 20.0984C108.723 15.4672 108.619 12.7084 108.097 10.836C107.575 8.96307 105.976 8.07724 103.767 7.56689C102.576 7.29107 101.277 7.10443 99.911 6.90844C98.7459 6.74107 97.5312 6.56655 96.291 6.32376C94.9869 4.29775 92.7787 1.77791 90.9009 1.04568C89.0231 0.313455 83.32 -0.588889 77.1475 0.517707C70.975 1.62485 66.7151 4.502 64.2114 9.26973C61.7075 14.0369 61.3772 19.2979 64.959 23.5035C68.5409 27.7091 73.0442 29.412 76.8868 30.093C80.7294 30.774 83.0987 28.3593 84.1751 26.1951C85.2515 24.0304 85.9819 21.1505 85.4821 17.7437C85.0666 14.9117 84.0441 11.9272 83.3384 9.86707C83.1953 9.4492 83.0653 9.06988 82.9559 8.73735ZM73.3026 5.23093C71.055 7.10608 66.9057 12.4937 68.1167 19.043C69.0799 24.669 76.2612 27.2566 78.2221 27.8693C74.3064 27.8693 67.3672 24.3976 66.0992 19.043C64.3826 11.7945 69.8539 6.51755 73.3026 5.23093Z" fill="white"/>
<path d="M78.2638 80.0539C79.7924 80.1337 82.707 81.3427 82.1375 85.5351H75.2068C72.1802 85.5351 72.0772 82.9943 72.6334 80.7988C72.9755 79.4477 73.4898 73.4705 72.5267 69.0413L72.369 68.3185C71.4479 64.1013 70.4822 59.6787 70.9772 56.5957C71.5006 53.3354 73.5735 53.6228 74.3064 53.7868C75.0392 53.9509 76.5049 54.5042 76.3794 56.7394C76.2538 58.9741 76.6515 61.947 77.51 65.6582C78.3685 69.3694 79.3108 75.5857 78.2638 80.0539Z" fill="white"/>
<path d="M35.6476 40.9079C35.437 44.8702 35.0207 48.686 34.4121 52.1704C36.4163 48.463 38.961 44.7094 41.4 41.4898C41.8859 32.3469 41.3113 22.5026 39.6804 14.7543C38.0083 15.1721 34.6979 16.8783 34.8317 20.3632C35.7315 26.6047 36.0227 33.851 35.6476 40.9079Z" fill="white"/>
<path fill-rule="evenodd" clip-rule="evenodd" d="M0 53.5534C0 44.7832 7.26032 37.6735 16.2163 37.6735C25.1722 37.6735 32.4325 44.7832 32.4325 53.5534C32.4325 62.323 25.1722 69.4328 16.2163 69.4328C7.26032 69.4328 0 62.323 0 53.5534ZM16.2163 43.311C10.4398 43.311 5.75709 47.8965 5.75709 53.5534C5.75709 59.2097 10.4398 63.7952 16.2163 63.7952C21.9928 63.7952 26.6755 59.2097 26.6755 53.5534C26.6755 47.8965 21.9928 43.311 16.2163 43.311Z" fill="white"/>
<path fill-rule="evenodd" clip-rule="evenodd" d="M46.8584 46.2961C44.6297 49.2377 42.6247 52.1897 40.9557 55.0432C42.5609 54.5223 44.2775 54.2405 46.0618 54.2405C55.0177 54.2405 62.2781 61.3497 62.2781 70.1198C62.2781 78.89 55.0177 85.9998 46.0618 85.9998C37.1058 85.9998 29.8455 78.89 29.8455 70.1198C29.8455 68.6813 30.0417 67.2823 30.411 65.9511C31.6595 58.7781 36.5415 50.4511 42.2349 42.9372C47.5813 35.8809 53.8996 29.2105 59.3544 24.3976C60.4919 25.6529 62.0844 28.9638 59.3544 32.1691C55.1851 36.2349 50.7512 41.1584 46.8584 46.2961ZM35.9953 67.3275C37.2367 63.0261 41.2775 59.878 46.0618 59.878C51.8383 59.878 56.521 64.4635 56.521 70.1198C56.521 75.7767 51.8383 80.3622 46.0618 80.3622C40.2853 80.3622 35.6026 75.7767 35.6026 70.1198C35.6026 69.1481 35.7401 68.2122 35.9953 67.3275ZM40.6995 51.1547C41.5317 51.1547 42.2062 50.494 42.2062 49.6792C42.2062 48.8644 41.5317 48.2037 40.6995 48.2037C39.8673 48.2037 39.1928 48.8644 39.1928 49.6792C39.1928 50.494 39.8673 51.1547 40.6995 51.1547Z" fill="white"/>
<path d="M68.9547 85.5346H54.2173C56.9298 84.2931 59.2606 82.3849 60.99 80.0258H64.4794C66.951 80.0258 68.9547 81.9879 68.9547 84.4081V85.5346Z" fill="white"/>
<path d="M121.71 44.5192V14.957H134.126C140.084 14.957 144.353 19.1522 144.353 24.9125C144.353 30.9988 140.127 35.0854 134.212 35.0854H127.105V44.5192H121.71ZM127.105 30.2598H133.952C136.769 30.2598 138.957 27.9557 138.957 24.9125C138.957 22.2171 136.769 19.7826 133.909 19.7826H127.105V30.2598Z" fill="white"/>
<path d="M169.226 32.9551C169.226 33.5203 169.204 33.9116 169.117 34.7376H151.719C152.26 38.3894 154.817 40.4978 157.894 40.4978C160.537 40.4978 162.162 39.3893 162.921 37.4981H168.641C167.514 41.5195 163.549 45.193 158.002 45.193C151.307 45.193 146.453 39.8675 146.453 33.3464C146.453 26.8254 151.307 21.4998 158.002 21.4998C164.719 21.4998 169.226 26.8036 169.226 32.9551ZM151.935 30.6728H163.874C163.657 28.173 161.057 26.0863 157.98 26.0863C155.337 26.0863 152.824 27.5209 151.935 30.6728Z" fill="white"/>
<path d="M183.135 44.5192C179.777 44.5192 175.747 43.3888 175.747 36.02V26.6949H171.132V22.1737H175.747V15.6309L180.99 15.5874V22.1737H187.664V26.6949H180.99V36.2591C180.99 39.3893 182.55 40.15 184.219 40.15H187.664V44.5192H183.135Z" fill="white"/>
<path d="M195.55 45.0626C193.73 45.0626 192.495 43.7584 192.495 42.1716C192.495 40.6065 193.708 39.2806 195.571 39.2806C197.413 39.2806 198.648 40.6065 198.648 42.1716C198.648 43.7801 197.413 45.0626 195.55 45.0626Z" fill="white"/>
<path d="M135.187 85.9568C126.607 85.9568 119.652 79.0663 119.652 70.5237C119.652 61.9159 126.607 55.0688 135.274 55.0688C141.514 55.0688 148.253 58.8727 149.639 65.5242H144.158C142.619 62.068 139.326 60.0248 135.144 60.0248C129.575 60.0248 125.025 64.22 125.025 70.5237C125.025 76.936 129.575 80.9791 135.144 80.9791C140.409 80.9791 143.638 78.0664 144.461 73.9364H134.927V69.4151H150.311C150.376 79.1097 144.829 85.9568 135.187 85.9568Z" fill="white"/>
<path d="M154.417 85.3265V62.981H159.444V67.024C160.484 64.5678 162.521 62.981 165.424 62.981H167.808V67.5023H165.706C162.109 67.5023 159.661 70.1759 159.661 74.9363V85.3265H154.417Z" fill="white"/>
<path d="M180.386 86.0003C173.604 86.0003 168.686 80.7183 168.686 74.1537C168.686 67.6327 173.583 62.3071 180.408 62.3071C187.255 62.3071 192.173 67.6109 192.173 74.1537C192.173 80.74 187.255 86.0003 180.386 86.0003ZM180.43 81.1095C184.178 81.1095 186.973 78.1968 186.973 74.1537C186.973 70.1324 184.178 67.1762 180.43 67.1762C176.681 67.1762 173.886 70.1324 173.886 74.1537C173.886 78.1968 176.681 81.1095 180.43 81.1095Z" fill="white"/>
<path d="M206.42 86.0003C199.638 86.0003 194.72 80.7183 194.72 74.1537C194.72 67.6327 199.616 62.3071 206.442 62.3071C213.288 62.3071 218.207 67.6109 218.207 74.1537C218.207 80.74 213.288 86.0003 206.42 86.0003ZM206.463 81.1095C210.212 81.1095 213.007 78.1968 213.007 74.1537C213.007 70.1324 210.212 67.1762 206.463 67.1762C202.715 67.1762 199.92 70.1324 199.92 74.1537C199.92 78.1968 202.715 81.1095 206.463 81.1095Z" fill="white"/>
<path d="M249.636 62.3071C255.226 62.3071 257.999 66.2633 257.999 73.2843V85.3265H252.821V73.3929C252.821 68.9804 251.001 67.1545 248.119 67.1545C245.324 67.1545 242.746 69.8933 242.746 73.9146V85.3265H237.567V73.3929C237.567 68.9804 235.747 67.1545 232.887 67.1545C230.07 67.1545 227.513 69.8933 227.513 73.9146V85.3265H222.335V62.981H227.232L227.297 66.4589C228.445 64.0896 231.11 62.3071 234.404 62.3071C238.13 62.3071 240.6 64.0678 241.836 67.3501C243.742 63.9157 246.451 62.3071 249.636 62.3071Z" fill="white"/>
</svg>
