<svg width="58" height="46" viewBox="0 0 58 46" fill="none" xmlns="http://www.w3.org/2000/svg">
<path fill-rule="evenodd" clip-rule="evenodd" d="M44.3719 4.67348C44.0943 3.82921 44.1636 3.13807 44.2329 2.89807C44.5741 2.98082 44.8503 2.99878 45.5478 3.04413L45.8335 3.06268C46.0264 3.07564 46.2467 3.09066 46.5008 3.10921C47.7233 3.19785 48.0087 3.60393 48.473 4.26445C49.1609 5.243 49.8743 6.11642 51.1685 6.30872C51.6746 6.38381 52.1094 6.45625 52.549 6.52958L52.572 6.53311L53.0305 6.60938L53.3882 6.66739C53.8666 6.74366 54.3975 6.82347 55.0589 6.91063C54.9984 11.7171 51.5032 12.3859 49.8394 12.347L49.6341 12.3417L49.5867 12.3399C48.1626 12.2963 48.0046 12.2916 46.3688 15.8802C44.641 19.6701 44.406 23.9474 44.406 26.181C44.406 27.8266 44.6931 30.4792 44.9647 32.9867L44.9652 32.9914L44.9682 33.0188C45.0638 33.9025 45.1573 34.7665 45.2353 35.5613C45.5358 38.6204 45.0289 42.4683 44.9349 42.8196L44.914 42.8971C44.6183 43.9893 44.2446 45.7515 46.0707 45.7515H50.0061C50.2839 43.7717 49.2345 42.8196 47.9073 42.8196C48.6327 39.1322 48.3316 36.1061 48.0102 33.447C47.6888 30.7878 47.2787 25.8494 47.5114 22.93C47.7442 20.0102 48.9967 17.1231 49.9499 15.2347C53.8846 15.2129 56.3314 13.2275 57.2428 10.7503C58.1542 8.27318 58.0985 6.79755 57.8195 5.79603C57.5405 4.79421 56.6848 4.3204 55.5037 4.04742C54.8662 3.89988 54.1717 3.80005 53.4409 3.69522C52.8177 3.6057 52.168 3.51235 51.5046 3.38248C50.8071 2.2988 49.6259 0.950975 48.6215 0.559319C47.6171 0.167662 44.5666 -0.314988 41.2651 0.276914C37.9635 0.86911 35.6849 2.40805 34.3457 4.95824C33.0064 7.50813 32.8298 10.3222 34.7456 12.5717C36.6615 14.8212 39.0703 15.732 41.1256 16.0963C43.181 16.4606 44.4483 15.169 45.024 14.0114C45.5997 12.8535 45.9905 11.3131 45.7231 9.49085C45.5009 7.97605 44.9539 6.37969 44.5765 5.27775C44.4999 5.05424 44.4304 4.85134 44.3719 4.67348ZM39.2084 2.79794C38.0062 3.80094 35.7868 6.68271 36.4346 10.1858C36.9498 13.1951 40.791 14.5791 41.8398 14.9069C39.7454 14.9069 36.0337 13.0499 35.3555 10.1858C34.4373 6.30872 37.3638 3.48614 39.2084 2.79794Z" fill="#2937B1"/>
<path d="M41.8622 42.8196C42.6797 42.8623 44.2388 43.509 43.9341 45.7515H40.227C38.6081 45.7515 38.553 44.3924 38.8505 43.2181C39.0335 42.4954 39.3086 39.2983 38.7934 36.9292L38.7091 36.5425C38.2164 34.2868 37.6999 31.9213 37.9647 30.2722C38.2446 28.5283 39.3534 28.682 39.7454 28.7698C40.1374 28.8575 40.9213 29.1535 40.8542 30.3491C40.787 31.5443 40.9998 33.1345 41.459 35.1196C41.9182 37.1047 42.4222 40.4296 41.8622 42.8196Z" fill="#2937B1"/>
<path d="M19.0674 21.881C18.9547 24.0004 18.7321 26.0414 18.4065 27.9052C19.4785 25.9222 20.8397 23.9144 22.1443 22.1923C22.4042 17.3019 22.0968 12.0363 21.2244 7.89183C20.3301 8.11534 18.5594 9.02793 18.6309 10.892C19.1122 14.2305 19.268 18.1064 19.0674 21.881Z" fill="#2937B1"/>
<path fill-rule="evenodd" clip-rule="evenodd" d="M0 28.6449C0 23.9539 3.88343 20.151 8.67384 20.151C13.4643 20.151 17.3477 23.9539 17.3477 28.6449C17.3477 33.3357 13.4643 37.1386 8.67384 37.1386C3.88343 37.1386 0 33.3357 0 28.6449ZM8.67384 23.1664C5.58409 23.1664 3.07938 25.6191 3.07938 28.6449C3.07938 31.6704 5.58409 34.1231 8.67384 34.1231C11.7636 34.1231 14.2683 31.6704 14.2683 28.6449C14.2683 25.6191 11.7636 23.1664 8.67384 23.1664Z" fill="#2937B1"/>
<path fill-rule="evenodd" clip-rule="evenodd" d="M25.0639 24.7631C23.8718 26.3365 22.7993 27.9155 21.9066 29.4418C22.7652 29.1632 23.6833 29.0124 24.6378 29.0124C29.4282 29.0124 33.3116 32.815 33.3116 37.5061C33.3116 42.1971 29.4282 46 24.6378 46C19.8474 46 15.9639 42.1971 15.9639 37.5061C15.9639 36.7366 16.0689 35.9883 16.2664 35.2763C16.9342 31.4395 19.5455 26.9855 22.5908 22.9665C25.4505 19.1922 28.8301 15.6243 31.7478 13.0499C32.3562 13.7213 33.208 15.4923 31.7478 17.2068C29.5177 19.3815 27.1461 22.015 25.0639 24.7631ZM19.2534 36.0125C19.9173 33.7117 22.0787 32.0279 24.6378 32.0279C27.7275 32.0279 30.2322 34.4806 30.2322 37.5061C30.2322 40.5318 27.7275 42.9845 24.6378 42.9845C21.548 42.9845 19.0433 40.5318 19.0433 37.5061C19.0433 36.9863 19.1168 36.4857 19.2534 36.0125ZM21.7696 27.3619C22.2147 27.3619 22.5755 27.0085 22.5755 26.5727C22.5755 26.1368 22.2147 25.7835 21.7696 25.7835C21.3244 25.7835 20.9636 26.1368 20.9636 26.5727C20.9636 27.0085 21.3244 27.3619 21.7696 27.3619Z" fill="#2937B1"/>
<path d="M36.8828 45.7512H29C30.4509 45.0871 31.6976 44.0665 32.6227 42.8046H34.4891C35.8111 42.8046 36.8828 43.8541 36.8828 45.1487V45.7512Z" fill="#2937B1"/>
</svg>
